<mxfile host="Electron" agent="Mozilla/5.0 (Windows NT 10.0; Win64; x64) AppleWebKit/537.36 (KHTML, like Gecko) draw.io/26.2.2 Chrome/134.0.6998.178 Electron/35.1.2 Safari/537.36" version="26.2.2">
  <diagram name="Page-1" id="2AjYDW9WGBLt7pJI69c-">
    <mxGraphModel dx="1009" dy="943" grid="1" gridSize="10" guides="1" tooltips="1" connect="1" arrows="1" fold="1" page="1" pageScale="1" pageWidth="850" pageHeight="1100" math="1" shadow="0">
      <root>
        <mxCell id="0" />
        <mxCell id="1" parent="0" />
        <mxCell id="ovOTCmCsFCUejr-TZWSU-1" value="&lt;font face=&quot;Times New Roman&quot;&gt;MUL_4&lt;/font&gt;" style="rounded=0;whiteSpace=wrap;html=1;" vertex="1" parent="1">
          <mxGeometry x="120" y="80" width="60" height="40" as="geometry" />
        </mxCell>
        <mxCell id="ovOTCmCsFCUejr-TZWSU-2" value="&lt;font face=&quot;Times New Roman&quot;&gt;MUL_4&lt;/font&gt;" style="rounded=0;whiteSpace=wrap;html=1;" vertex="1" parent="1">
          <mxGeometry x="260" y="80" width="60" height="40" as="geometry" />
        </mxCell>
        <mxCell id="ovOTCmCsFCUejr-TZWSU-3" value="&lt;font face=&quot;Times New Roman&quot;&gt;MUL_4&lt;/font&gt;" style="rounded=0;whiteSpace=wrap;html=1;" vertex="1" parent="1">
          <mxGeometry x="400" y="80" width="60" height="40" as="geometry" />
        </mxCell>
        <mxCell id="ovOTCmCsFCUejr-TZWSU-4" value="&lt;font face=&quot;Times New Roman&quot;&gt;MUL_4&lt;/font&gt;" style="rounded=0;whiteSpace=wrap;html=1;" vertex="1" parent="1">
          <mxGeometry x="540" y="80" width="60" height="40" as="geometry" />
        </mxCell>
        <mxCell id="ovOTCmCsFCUejr-TZWSU-7" value="" style="endArrow=classic;html=1;rounded=0;" edge="1" parent="1">
          <mxGeometry width="50" height="50" relative="1" as="geometry">
            <mxPoint x="140" y="60" as="sourcePoint" />
            <mxPoint x="140" y="80" as="targetPoint" />
          </mxGeometry>
        </mxCell>
        <mxCell id="ovOTCmCsFCUejr-TZWSU-8" value="" style="endArrow=classic;html=1;rounded=0;" edge="1" parent="1">
          <mxGeometry width="50" height="50" relative="1" as="geometry">
            <mxPoint x="160" y="60" as="sourcePoint" />
            <mxPoint x="160" y="80" as="targetPoint" />
          </mxGeometry>
        </mxCell>
        <mxCell id="ovOTCmCsFCUejr-TZWSU-9" value="$$a_L$$" style="text;html=1;align=center;verticalAlign=middle;whiteSpace=wrap;rounded=0;" vertex="1" parent="1">
          <mxGeometry x="130" y="40" width="20" height="20" as="geometry" />
        </mxCell>
        <mxCell id="ovOTCmCsFCUejr-TZWSU-10" value="$$b_L$$" style="text;html=1;align=center;verticalAlign=middle;whiteSpace=wrap;rounded=0;" vertex="1" parent="1">
          <mxGeometry x="150" y="40" width="20" height="20" as="geometry" />
        </mxCell>
        <mxCell id="ovOTCmCsFCUejr-TZWSU-11" value="" style="endArrow=classic;html=1;rounded=0;" edge="1" parent="1">
          <mxGeometry width="50" height="50" relative="1" as="geometry">
            <mxPoint x="280" y="60" as="sourcePoint" />
            <mxPoint x="280" y="80" as="targetPoint" />
          </mxGeometry>
        </mxCell>
        <mxCell id="ovOTCmCsFCUejr-TZWSU-12" value="" style="endArrow=classic;html=1;rounded=0;" edge="1" parent="1">
          <mxGeometry width="50" height="50" relative="1" as="geometry">
            <mxPoint x="300" y="60" as="sourcePoint" />
            <mxPoint x="300" y="80" as="targetPoint" />
          </mxGeometry>
        </mxCell>
        <mxCell id="ovOTCmCsFCUejr-TZWSU-13" value="$$a_H$$" style="text;html=1;align=center;verticalAlign=middle;whiteSpace=wrap;rounded=0;" vertex="1" parent="1">
          <mxGeometry x="270" y="40" width="20" height="20" as="geometry" />
        </mxCell>
        <mxCell id="ovOTCmCsFCUejr-TZWSU-14" value="$$b_L$$" style="text;html=1;align=center;verticalAlign=middle;whiteSpace=wrap;rounded=0;" vertex="1" parent="1">
          <mxGeometry x="290" y="40" width="20" height="20" as="geometry" />
        </mxCell>
        <mxCell id="ovOTCmCsFCUejr-TZWSU-15" value="" style="endArrow=classic;html=1;rounded=0;" edge="1" parent="1">
          <mxGeometry width="50" height="50" relative="1" as="geometry">
            <mxPoint x="420" y="60" as="sourcePoint" />
            <mxPoint x="420" y="80" as="targetPoint" />
          </mxGeometry>
        </mxCell>
        <mxCell id="ovOTCmCsFCUejr-TZWSU-16" value="" style="endArrow=classic;html=1;rounded=0;" edge="1" parent="1">
          <mxGeometry width="50" height="50" relative="1" as="geometry">
            <mxPoint x="440" y="60" as="sourcePoint" />
            <mxPoint x="440" y="80" as="targetPoint" />
          </mxGeometry>
        </mxCell>
        <mxCell id="ovOTCmCsFCUejr-TZWSU-17" value="$$a_L$$" style="text;html=1;align=center;verticalAlign=middle;whiteSpace=wrap;rounded=0;" vertex="1" parent="1">
          <mxGeometry x="410" y="40" width="20" height="20" as="geometry" />
        </mxCell>
        <mxCell id="ovOTCmCsFCUejr-TZWSU-18" value="$$b_H$$" style="text;html=1;align=center;verticalAlign=middle;whiteSpace=wrap;rounded=0;" vertex="1" parent="1">
          <mxGeometry x="430" y="40" width="20" height="20" as="geometry" />
        </mxCell>
        <mxCell id="ovOTCmCsFCUejr-TZWSU-19" value="" style="endArrow=classic;html=1;rounded=0;" edge="1" parent="1">
          <mxGeometry width="50" height="50" relative="1" as="geometry">
            <mxPoint x="560" y="60" as="sourcePoint" />
            <mxPoint x="560" y="80" as="targetPoint" />
          </mxGeometry>
        </mxCell>
        <mxCell id="ovOTCmCsFCUejr-TZWSU-20" value="" style="endArrow=classic;html=1;rounded=0;" edge="1" parent="1">
          <mxGeometry width="50" height="50" relative="1" as="geometry">
            <mxPoint x="580" y="60" as="sourcePoint" />
            <mxPoint x="580" y="80" as="targetPoint" />
          </mxGeometry>
        </mxCell>
        <mxCell id="ovOTCmCsFCUejr-TZWSU-21" value="$$a_H$$" style="text;html=1;align=center;verticalAlign=middle;whiteSpace=wrap;rounded=0;" vertex="1" parent="1">
          <mxGeometry x="550" y="40" width="20" height="20" as="geometry" />
        </mxCell>
        <mxCell id="ovOTCmCsFCUejr-TZWSU-22" value="$$b_H$$" style="text;html=1;align=center;verticalAlign=middle;whiteSpace=wrap;rounded=0;" vertex="1" parent="1">
          <mxGeometry x="570" y="40" width="20" height="20" as="geometry" />
        </mxCell>
        <mxCell id="ovOTCmCsFCUejr-TZWSU-23" value="&lt;font face=&quot;Times New Roman&quot;&gt;Adder_16&lt;/font&gt;" style="rounded=0;whiteSpace=wrap;html=1;" vertex="1" parent="1">
          <mxGeometry x="120" y="200" width="200" height="40" as="geometry" />
        </mxCell>
        <mxCell id="ovOTCmCsFCUejr-TZWSU-24" value="&lt;font face=&quot;Times New Roman&quot;&gt;Adder_16&lt;/font&gt;" style="rounded=0;whiteSpace=wrap;html=1;" vertex="1" parent="1">
          <mxGeometry x="260" y="320" width="200" height="40" as="geometry" />
        </mxCell>
        <mxCell id="ovOTCmCsFCUejr-TZWSU-25" value="" style="endArrow=classic;html=1;rounded=0;" edge="1" parent="1">
          <mxGeometry width="50" height="50" relative="1" as="geometry">
            <mxPoint x="150" y="120" as="sourcePoint" />
            <mxPoint x="150" y="200" as="targetPoint" />
          </mxGeometry>
        </mxCell>
        <mxCell id="ovOTCmCsFCUejr-TZWSU-26" value="{8&#39;b0, prod}" style="text;html=1;align=center;verticalAlign=middle;whiteSpace=wrap;rounded=0;" vertex="1" parent="1">
          <mxGeometry x="80" y="120" width="70" height="20" as="geometry" />
        </mxCell>
        <mxCell id="ovOTCmCsFCUejr-TZWSU-27" value="" style="endArrow=classic;html=1;rounded=0;" edge="1" parent="1">
          <mxGeometry width="50" height="50" relative="1" as="geometry">
            <mxPoint x="290" y="120" as="sourcePoint" />
            <mxPoint x="290" y="200" as="targetPoint" />
          </mxGeometry>
        </mxCell>
        <mxCell id="ovOTCmCsFCUejr-TZWSU-28" value="{4&#39;b0, prod, 4&#39;b0}" style="text;html=1;align=center;verticalAlign=middle;whiteSpace=wrap;rounded=0;" vertex="1" parent="1">
          <mxGeometry x="190" y="120" width="100" height="20" as="geometry" />
        </mxCell>
        <mxCell id="ovOTCmCsFCUejr-TZWSU-29" value="&lt;font face=&quot;Times New Roman&quot;&gt;Adder_16&lt;/font&gt;" style="rounded=0;whiteSpace=wrap;html=1;" vertex="1" parent="1">
          <mxGeometry x="400" y="200" width="200" height="40" as="geometry" />
        </mxCell>
        <mxCell id="ovOTCmCsFCUejr-TZWSU-30" value="" style="endArrow=classic;html=1;rounded=0;" edge="1" parent="1">
          <mxGeometry width="50" height="50" relative="1" as="geometry">
            <mxPoint x="430" y="120" as="sourcePoint" />
            <mxPoint x="430" y="200" as="targetPoint" />
          </mxGeometry>
        </mxCell>
        <mxCell id="ovOTCmCsFCUejr-TZWSU-31" value="{4&#39;b0, prod, 4&#39;b0}" style="text;html=1;align=center;verticalAlign=middle;whiteSpace=wrap;rounded=0;" vertex="1" parent="1">
          <mxGeometry x="330" y="120" width="100" height="20" as="geometry" />
        </mxCell>
        <mxCell id="ovOTCmCsFCUejr-TZWSU-32" value="" style="endArrow=classic;html=1;rounded=0;" edge="1" parent="1">
          <mxGeometry width="50" height="50" relative="1" as="geometry">
            <mxPoint x="570" y="120" as="sourcePoint" />
            <mxPoint x="570" y="200" as="targetPoint" />
          </mxGeometry>
        </mxCell>
        <mxCell id="ovOTCmCsFCUejr-TZWSU-33" value="{prod, 8&#39;b0}" style="text;html=1;align=center;verticalAlign=middle;whiteSpace=wrap;rounded=0;" vertex="1" parent="1">
          <mxGeometry x="470" y="120" width="100" height="20" as="geometry" />
        </mxCell>
        <mxCell id="ovOTCmCsFCUejr-TZWSU-34" value="" style="endArrow=classic;html=1;rounded=0;" edge="1" parent="1">
          <mxGeometry width="50" height="50" relative="1" as="geometry">
            <mxPoint x="100" y="220" as="sourcePoint" />
            <mxPoint x="120" y="220" as="targetPoint" />
          </mxGeometry>
        </mxCell>
        <mxCell id="ovOTCmCsFCUejr-TZWSU-35" value="$$0$$" style="text;html=1;align=center;verticalAlign=middle;whiteSpace=wrap;rounded=0;" vertex="1" parent="1">
          <mxGeometry x="80" y="210" width="20" height="20" as="geometry" />
        </mxCell>
        <mxCell id="ovOTCmCsFCUejr-TZWSU-36" value="" style="endArrow=classic;html=1;rounded=0;" edge="1" parent="1">
          <mxGeometry width="50" height="50" relative="1" as="geometry">
            <mxPoint x="380" y="220" as="sourcePoint" />
            <mxPoint x="400" y="220" as="targetPoint" />
          </mxGeometry>
        </mxCell>
        <mxCell id="ovOTCmCsFCUejr-TZWSU-37" value="$$0$$" style="text;html=1;align=center;verticalAlign=middle;whiteSpace=wrap;rounded=0;" vertex="1" parent="1">
          <mxGeometry x="360" y="210" width="20" height="20" as="geometry" />
        </mxCell>
        <mxCell id="ovOTCmCsFCUejr-TZWSU-38" value="" style="endArrow=classic;html=1;rounded=0;exitX=0.5;exitY=1;exitDx=0;exitDy=0;" edge="1" parent="1" source="ovOTCmCsFCUejr-TZWSU-23">
          <mxGeometry width="50" height="50" relative="1" as="geometry">
            <mxPoint x="290" y="280" as="sourcePoint" />
            <mxPoint x="289.6" y="320" as="targetPoint" />
            <Array as="points">
              <mxPoint x="220" y="280" />
              <mxPoint x="290" y="280" />
            </Array>
          </mxGeometry>
        </mxCell>
        <mxCell id="ovOTCmCsFCUejr-TZWSU-39" value="" style="endArrow=classic;html=1;rounded=0;exitX=0.5;exitY=1;exitDx=0;exitDy=0;" edge="1" parent="1">
          <mxGeometry width="50" height="50" relative="1" as="geometry">
            <mxPoint x="500" y="240" as="sourcePoint" />
            <mxPoint x="430.4" y="320" as="targetPoint" />
            <Array as="points">
              <mxPoint x="500" y="280" />
              <mxPoint x="430" y="280" />
            </Array>
          </mxGeometry>
        </mxCell>
        <mxCell id="ovOTCmCsFCUejr-TZWSU-40" value="" style="endArrow=classic;html=1;rounded=0;" edge="1" parent="1">
          <mxGeometry width="50" height="50" relative="1" as="geometry">
            <mxPoint x="240" y="340" as="sourcePoint" />
            <mxPoint x="260" y="340" as="targetPoint" />
          </mxGeometry>
        </mxCell>
        <mxCell id="ovOTCmCsFCUejr-TZWSU-41" value="$$0$$" style="text;html=1;align=center;verticalAlign=middle;whiteSpace=wrap;rounded=0;" vertex="1" parent="1">
          <mxGeometry x="220" y="330" width="20" height="20" as="geometry" />
        </mxCell>
        <mxCell id="ovOTCmCsFCUejr-TZWSU-42" value="" style="endArrow=classic;html=1;rounded=0;" edge="1" parent="1">
          <mxGeometry width="50" height="50" relative="1" as="geometry">
            <mxPoint x="359.52" y="360" as="sourcePoint" />
            <mxPoint x="360" y="380" as="targetPoint" />
          </mxGeometry>
        </mxCell>
        <mxCell id="ovOTCmCsFCUejr-TZWSU-43" value="out" style="text;html=1;align=center;verticalAlign=middle;whiteSpace=wrap;rounded=0;" vertex="1" parent="1">
          <mxGeometry x="310" y="380" width="100" height="20" as="geometry" />
        </mxCell>
        <mxCell id="ovOTCmCsFCUejr-TZWSU-45" value="&lt;font face=&quot;Times New Roman&quot;&gt;MUL_8&lt;/font&gt;" style="rounded=0;whiteSpace=wrap;html=1;" vertex="1" parent="1">
          <mxGeometry x="110" y="550" width="60" height="40" as="geometry" />
        </mxCell>
        <mxCell id="ovOTCmCsFCUejr-TZWSU-46" value="&lt;font face=&quot;Times New Roman&quot;&gt;MUL_8&lt;/font&gt;" style="rounded=0;whiteSpace=wrap;html=1;" vertex="1" parent="1">
          <mxGeometry x="250" y="550" width="60" height="40" as="geometry" />
        </mxCell>
        <mxCell id="ovOTCmCsFCUejr-TZWSU-47" value="&lt;font face=&quot;Times New Roman&quot;&gt;MUL_8&lt;/font&gt;" style="rounded=0;whiteSpace=wrap;html=1;" vertex="1" parent="1">
          <mxGeometry x="390" y="550" width="60" height="40" as="geometry" />
        </mxCell>
        <mxCell id="ovOTCmCsFCUejr-TZWSU-48" value="&lt;font face=&quot;Times New Roman&quot;&gt;MUL_8&lt;/font&gt;" style="rounded=0;whiteSpace=wrap;html=1;" vertex="1" parent="1">
          <mxGeometry x="530" y="550" width="60" height="40" as="geometry" />
        </mxCell>
        <mxCell id="ovOTCmCsFCUejr-TZWSU-49" value="" style="endArrow=classic;html=1;rounded=0;" edge="1" parent="1">
          <mxGeometry width="50" height="50" relative="1" as="geometry">
            <mxPoint x="130" y="530" as="sourcePoint" />
            <mxPoint x="130" y="550" as="targetPoint" />
          </mxGeometry>
        </mxCell>
        <mxCell id="ovOTCmCsFCUejr-TZWSU-50" value="" style="endArrow=classic;html=1;rounded=0;" edge="1" parent="1">
          <mxGeometry width="50" height="50" relative="1" as="geometry">
            <mxPoint x="150" y="530" as="sourcePoint" />
            <mxPoint x="150" y="550" as="targetPoint" />
          </mxGeometry>
        </mxCell>
        <mxCell id="ovOTCmCsFCUejr-TZWSU-51" value="$$a_L$$" style="text;html=1;align=center;verticalAlign=middle;whiteSpace=wrap;rounded=0;" vertex="1" parent="1">
          <mxGeometry x="120" y="510" width="20" height="20" as="geometry" />
        </mxCell>
        <mxCell id="ovOTCmCsFCUejr-TZWSU-52" value="$$b_L$$" style="text;html=1;align=center;verticalAlign=middle;whiteSpace=wrap;rounded=0;" vertex="1" parent="1">
          <mxGeometry x="140" y="510" width="20" height="20" as="geometry" />
        </mxCell>
        <mxCell id="ovOTCmCsFCUejr-TZWSU-53" value="" style="endArrow=classic;html=1;rounded=0;" edge="1" parent="1">
          <mxGeometry width="50" height="50" relative="1" as="geometry">
            <mxPoint x="270" y="530" as="sourcePoint" />
            <mxPoint x="270" y="550" as="targetPoint" />
          </mxGeometry>
        </mxCell>
        <mxCell id="ovOTCmCsFCUejr-TZWSU-54" value="" style="endArrow=classic;html=1;rounded=0;" edge="1" parent="1">
          <mxGeometry width="50" height="50" relative="1" as="geometry">
            <mxPoint x="290" y="530" as="sourcePoint" />
            <mxPoint x="290" y="550" as="targetPoint" />
          </mxGeometry>
        </mxCell>
        <mxCell id="ovOTCmCsFCUejr-TZWSU-55" value="$$a_H$$" style="text;html=1;align=center;verticalAlign=middle;whiteSpace=wrap;rounded=0;" vertex="1" parent="1">
          <mxGeometry x="260" y="510" width="20" height="20" as="geometry" />
        </mxCell>
        <mxCell id="ovOTCmCsFCUejr-TZWSU-56" value="$$b_L$$" style="text;html=1;align=center;verticalAlign=middle;whiteSpace=wrap;rounded=0;" vertex="1" parent="1">
          <mxGeometry x="280" y="510" width="20" height="20" as="geometry" />
        </mxCell>
        <mxCell id="ovOTCmCsFCUejr-TZWSU-57" value="" style="endArrow=classic;html=1;rounded=0;" edge="1" parent="1">
          <mxGeometry width="50" height="50" relative="1" as="geometry">
            <mxPoint x="410" y="530" as="sourcePoint" />
            <mxPoint x="410" y="550" as="targetPoint" />
          </mxGeometry>
        </mxCell>
        <mxCell id="ovOTCmCsFCUejr-TZWSU-58" value="" style="endArrow=classic;html=1;rounded=0;" edge="1" parent="1">
          <mxGeometry width="50" height="50" relative="1" as="geometry">
            <mxPoint x="430" y="530" as="sourcePoint" />
            <mxPoint x="430" y="550" as="targetPoint" />
          </mxGeometry>
        </mxCell>
        <mxCell id="ovOTCmCsFCUejr-TZWSU-59" value="$$a_L$$" style="text;html=1;align=center;verticalAlign=middle;whiteSpace=wrap;rounded=0;" vertex="1" parent="1">
          <mxGeometry x="400" y="510" width="20" height="20" as="geometry" />
        </mxCell>
        <mxCell id="ovOTCmCsFCUejr-TZWSU-60" value="$$b_H$$" style="text;html=1;align=center;verticalAlign=middle;whiteSpace=wrap;rounded=0;" vertex="1" parent="1">
          <mxGeometry x="420" y="510" width="20" height="20" as="geometry" />
        </mxCell>
        <mxCell id="ovOTCmCsFCUejr-TZWSU-61" value="" style="endArrow=classic;html=1;rounded=0;" edge="1" parent="1">
          <mxGeometry width="50" height="50" relative="1" as="geometry">
            <mxPoint x="550" y="530" as="sourcePoint" />
            <mxPoint x="550" y="550" as="targetPoint" />
          </mxGeometry>
        </mxCell>
        <mxCell id="ovOTCmCsFCUejr-TZWSU-62" value="" style="endArrow=classic;html=1;rounded=0;" edge="1" parent="1">
          <mxGeometry width="50" height="50" relative="1" as="geometry">
            <mxPoint x="570" y="530" as="sourcePoint" />
            <mxPoint x="570" y="550" as="targetPoint" />
          </mxGeometry>
        </mxCell>
        <mxCell id="ovOTCmCsFCUejr-TZWSU-63" value="$$a_H$$" style="text;html=1;align=center;verticalAlign=middle;whiteSpace=wrap;rounded=0;" vertex="1" parent="1">
          <mxGeometry x="540" y="510" width="20" height="20" as="geometry" />
        </mxCell>
        <mxCell id="ovOTCmCsFCUejr-TZWSU-64" value="$$b_H$$" style="text;html=1;align=center;verticalAlign=middle;whiteSpace=wrap;rounded=0;" vertex="1" parent="1">
          <mxGeometry x="560" y="510" width="20" height="20" as="geometry" />
        </mxCell>
        <mxCell id="ovOTCmCsFCUejr-TZWSU-65" value="&lt;font face=&quot;Times New Roman&quot;&gt;Adder_32&lt;/font&gt;" style="rounded=0;whiteSpace=wrap;html=1;" vertex="1" parent="1">
          <mxGeometry x="110" y="670" width="200" height="40" as="geometry" />
        </mxCell>
        <mxCell id="ovOTCmCsFCUejr-TZWSU-66" value="&lt;font face=&quot;Times New Roman&quot;&gt;Adder_32&lt;/font&gt;" style="rounded=0;whiteSpace=wrap;html=1;" vertex="1" parent="1">
          <mxGeometry x="250" y="790" width="200" height="40" as="geometry" />
        </mxCell>
        <mxCell id="ovOTCmCsFCUejr-TZWSU-67" value="" style="endArrow=classic;html=1;rounded=0;" edge="1" parent="1">
          <mxGeometry width="50" height="50" relative="1" as="geometry">
            <mxPoint x="140" y="590" as="sourcePoint" />
            <mxPoint x="140" y="670" as="targetPoint" />
          </mxGeometry>
        </mxCell>
        <mxCell id="ovOTCmCsFCUejr-TZWSU-68" value="{16&#39;b0, prod}" style="text;html=1;align=center;verticalAlign=middle;whiteSpace=wrap;rounded=0;" vertex="1" parent="1">
          <mxGeometry x="70" y="590" width="70" height="20" as="geometry" />
        </mxCell>
        <mxCell id="ovOTCmCsFCUejr-TZWSU-69" value="" style="endArrow=classic;html=1;rounded=0;" edge="1" parent="1">
          <mxGeometry width="50" height="50" relative="1" as="geometry">
            <mxPoint x="280" y="590" as="sourcePoint" />
            <mxPoint x="280" y="670" as="targetPoint" />
          </mxGeometry>
        </mxCell>
        <mxCell id="ovOTCmCsFCUejr-TZWSU-70" value="{8&#39;b0, prod, 8&#39;b0}" style="text;html=1;align=center;verticalAlign=middle;whiteSpace=wrap;rounded=0;" vertex="1" parent="1">
          <mxGeometry x="180" y="590" width="100" height="20" as="geometry" />
        </mxCell>
        <mxCell id="ovOTCmCsFCUejr-TZWSU-71" value="&lt;font face=&quot;Times New Roman&quot;&gt;Adder_32&lt;/font&gt;" style="rounded=0;whiteSpace=wrap;html=1;" vertex="1" parent="1">
          <mxGeometry x="390" y="670" width="200" height="40" as="geometry" />
        </mxCell>
        <mxCell id="ovOTCmCsFCUejr-TZWSU-72" value="" style="endArrow=classic;html=1;rounded=0;" edge="1" parent="1">
          <mxGeometry width="50" height="50" relative="1" as="geometry">
            <mxPoint x="420" y="590" as="sourcePoint" />
            <mxPoint x="420" y="670" as="targetPoint" />
          </mxGeometry>
        </mxCell>
        <mxCell id="ovOTCmCsFCUejr-TZWSU-73" value="{8&#39;b0, prod, 8&#39;b0}" style="text;html=1;align=center;verticalAlign=middle;whiteSpace=wrap;rounded=0;" vertex="1" parent="1">
          <mxGeometry x="320" y="590" width="100" height="20" as="geometry" />
        </mxCell>
        <mxCell id="ovOTCmCsFCUejr-TZWSU-74" value="" style="endArrow=classic;html=1;rounded=0;" edge="1" parent="1">
          <mxGeometry width="50" height="50" relative="1" as="geometry">
            <mxPoint x="560" y="590" as="sourcePoint" />
            <mxPoint x="560" y="670" as="targetPoint" />
          </mxGeometry>
        </mxCell>
        <mxCell id="ovOTCmCsFCUejr-TZWSU-75" value="{prod, 16&#39;b0}" style="text;html=1;align=center;verticalAlign=middle;whiteSpace=wrap;rounded=0;" vertex="1" parent="1">
          <mxGeometry x="460" y="590" width="100" height="20" as="geometry" />
        </mxCell>
        <mxCell id="ovOTCmCsFCUejr-TZWSU-76" value="" style="endArrow=classic;html=1;rounded=0;" edge="1" parent="1">
          <mxGeometry width="50" height="50" relative="1" as="geometry">
            <mxPoint x="90" y="690" as="sourcePoint" />
            <mxPoint x="110" y="690" as="targetPoint" />
          </mxGeometry>
        </mxCell>
        <mxCell id="ovOTCmCsFCUejr-TZWSU-77" value="$$0$$" style="text;html=1;align=center;verticalAlign=middle;whiteSpace=wrap;rounded=0;" vertex="1" parent="1">
          <mxGeometry x="70" y="680" width="20" height="20" as="geometry" />
        </mxCell>
        <mxCell id="ovOTCmCsFCUejr-TZWSU-78" value="" style="endArrow=classic;html=1;rounded=0;" edge="1" parent="1">
          <mxGeometry width="50" height="50" relative="1" as="geometry">
            <mxPoint x="370" y="690" as="sourcePoint" />
            <mxPoint x="390" y="690" as="targetPoint" />
          </mxGeometry>
        </mxCell>
        <mxCell id="ovOTCmCsFCUejr-TZWSU-79" value="$$0$$" style="text;html=1;align=center;verticalAlign=middle;whiteSpace=wrap;rounded=0;" vertex="1" parent="1">
          <mxGeometry x="350" y="680" width="20" height="20" as="geometry" />
        </mxCell>
        <mxCell id="ovOTCmCsFCUejr-TZWSU-80" value="" style="endArrow=classic;html=1;rounded=0;exitX=0.5;exitY=1;exitDx=0;exitDy=0;" edge="1" parent="1" source="ovOTCmCsFCUejr-TZWSU-65">
          <mxGeometry width="50" height="50" relative="1" as="geometry">
            <mxPoint x="280" y="750" as="sourcePoint" />
            <mxPoint x="279.6" y="790" as="targetPoint" />
            <Array as="points">
              <mxPoint x="210" y="750" />
              <mxPoint x="280" y="750" />
            </Array>
          </mxGeometry>
        </mxCell>
        <mxCell id="ovOTCmCsFCUejr-TZWSU-81" value="" style="endArrow=classic;html=1;rounded=0;exitX=0.5;exitY=1;exitDx=0;exitDy=0;" edge="1" parent="1">
          <mxGeometry width="50" height="50" relative="1" as="geometry">
            <mxPoint x="490" y="710" as="sourcePoint" />
            <mxPoint x="420.4" y="790" as="targetPoint" />
            <Array as="points">
              <mxPoint x="490" y="750" />
              <mxPoint x="420" y="750" />
            </Array>
          </mxGeometry>
        </mxCell>
        <mxCell id="ovOTCmCsFCUejr-TZWSU-82" value="" style="endArrow=classic;html=1;rounded=0;" edge="1" parent="1">
          <mxGeometry width="50" height="50" relative="1" as="geometry">
            <mxPoint x="230" y="810" as="sourcePoint" />
            <mxPoint x="250" y="810" as="targetPoint" />
          </mxGeometry>
        </mxCell>
        <mxCell id="ovOTCmCsFCUejr-TZWSU-83" value="$$0$$" style="text;html=1;align=center;verticalAlign=middle;whiteSpace=wrap;rounded=0;" vertex="1" parent="1">
          <mxGeometry x="210" y="800" width="20" height="20" as="geometry" />
        </mxCell>
        <mxCell id="ovOTCmCsFCUejr-TZWSU-84" value="" style="endArrow=classic;html=1;rounded=0;" edge="1" parent="1">
          <mxGeometry width="50" height="50" relative="1" as="geometry">
            <mxPoint x="349.52" y="830" as="sourcePoint" />
            <mxPoint x="350" y="850" as="targetPoint" />
          </mxGeometry>
        </mxCell>
        <mxCell id="ovOTCmCsFCUejr-TZWSU-85" value="out" style="text;html=1;align=center;verticalAlign=middle;whiteSpace=wrap;rounded=0;" vertex="1" parent="1">
          <mxGeometry x="300" y="850" width="100" height="20" as="geometry" />
        </mxCell>
      </root>
    </mxGraphModel>
  </diagram>
</mxfile>
